<svg width="31" height="25" viewBox="0 0 31 25" fill="none" xmlns="http://www.w3.org/2000/svg">
    <g id="Vector">
        <path fill-rule="evenodd" clip-rule="evenodd"
              d="M26.0179 2.27273C27.5465 2.27273 28.7857 3.54465 28.7857 5.11364V19.8864C28.7857 21.4554 27.5465 22.7273 26.0179 22.7273H4.98214C3.4535 22.7273 2.21429 21.4554 2.21429 19.8864V5.11364C2.21429 3.54465 3.4535 2.27273 4.98214 2.27273H26.0179ZM31 5.11364C31 2.28945 28.7694 0 26.0179 0H4.98214C2.23058 0 1.90735e-06 2.28945 1.90735e-06 5.11364V19.8864C1.90735e-06 22.7105 2.23058 25 4.98214 25H26.0179C28.7694 25 31 22.7105 31 19.8864V5.11364Z"
              fill="white"/>
        <path fill-rule="evenodd" clip-rule="evenodd" d="M1.10714 10.0852H29.8929V5.82386H1.10714V10.0852Z"
              fill="white"/>
        <path fill-rule="evenodd" clip-rule="evenodd"
              d="M26.433 15.625C26.433 14.4483 25.5036 13.4943 24.3571 13.4943H21.0357C19.8892 13.4943 18.9598 14.4483 18.9598 15.625V17.0455C18.9598 18.2222 19.8892 19.1761 21.0357 19.1761H24.3571C25.5036 19.1761 26.433 18.2222 26.433 17.0455V15.625Z"
              fill="white"/>
    </g>
</svg>
