<svg width="97" height="124" viewBox="0 0 97 124" fill="none" xmlns="http://www.w3.org/2000/svg">
    <g id="Camada_1" clip-path="url(#clip0_1001_599)">
        <path id="Vector"
              d="M60.2676 0C61.0024 0.667372 61.6293 1.26565 62.2882 1.82685C64.8044 3.97221 67.2767 6.1715 69.8686 8.22418C72.5347 10.3358 75.2936 12.3329 78.0608 14.3114C80.6477 16.1619 83.388 17.7747 86.1518 19.3521C88.1708 20.5031 89.8224 22.0957 91.2212 23.9512C92.4851 25.6264 93.4862 27.4482 94.3255 29.3677C95.0518 31.0277 95.6197 32.74 96.0293 34.4994C96.5028 36.5336 96.791 38.5947 96.9343 40.6861C97.0691 42.6579 96.9966 44.6212 96.791 46.5694C96.6276 48.1199 96.2366 49.6518 95.8624 51.1702C95.3012 53.4454 94.3288 55.552 93.0227 57.5002C92.7784 57.8642 92.5053 58.208 92.1717 58.5113C92.2627 57.8945 92.3891 57.2794 92.4362 56.6575C92.5626 54.9537 92.7379 53.2482 92.7362 51.5444C92.7362 50.2619 92.5728 48.9642 92.3284 47.7019C92.0705 46.3756 91.7099 45.056 91.2549 43.7836C90.2673 41.0215 88.7202 38.5795 86.7518 36.4088C85.2114 34.7084 83.4705 33.2388 81.5611 31.9648C79.8101 30.7969 77.9715 29.7823 76.025 28.9936C74.4998 28.3751 72.9274 27.8695 71.3685 27.3387C70.6809 27.1044 69.9697 26.9426 69.2771 26.7235C68.4884 26.4741 68.3215 26.5803 68.3199 27.401C68.3199 42.8247 68.3165 58.2484 68.3232 73.6721C68.3232 75.1889 68.3654 76.7124 68.0182 78.1954C67.7401 79.3903 67.4014 80.5818 66.9683 81.7278C66.1829 83.804 64.9881 85.6494 63.5101 87.3044C61.6158 89.4261 59.3525 91.0305 56.7268 92.131C53.9225 93.3073 50.9985 93.8079 47.9785 93.5736C46.2073 93.4354 44.4681 93.068 42.7861 92.4344C39.4223 91.167 36.6382 89.1312 34.4221 86.3101C33.0873 84.6096 32.0981 82.7271 31.4038 80.6762C30.6049 78.3184 30.2881 75.9018 30.4516 73.4278C30.5914 71.3212 31.0583 69.2836 31.8857 67.3287C33.1666 64.2935 35.0962 61.7622 37.6764 59.7264C39.5538 58.2467 41.6418 57.1766 43.9355 56.4789C46.391 55.7306 48.8987 55.5688 51.4249 55.7997C53.8871 56.0238 56.2162 56.7687 58.3885 57.9703C58.8166 58.208 59.2278 58.4742 59.6592 58.7068C59.7822 58.7725 59.9794 58.8315 60.0771 58.7776C60.1732 58.7237 60.2254 58.5231 60.2322 58.3849C60.2507 57.908 60.2406 57.4311 60.2406 56.9541C60.2406 38.1615 60.2406 19.3706 60.2406 0.578052C60.2406 0.428062 60.2558 0.278072 60.2693 0L60.2676 0Z"
              fill="#FF9900"/>
        <path id="Vector_2"
              d="M9.77483 73.9536C9.90966 72.5902 10.0226 70.3268 10.3866 68.1056C10.7001 66.1962 11.2731 64.3239 11.7837 62.4498C12.3415 60.4022 13.2229 58.4726 14.192 56.5952C16.3458 52.4258 19.1619 48.7451 22.6116 45.5566C24.5615 43.755 26.658 42.1321 28.9466 40.799C30.6336 39.8165 32.3964 38.9418 34.1895 38.1683C35.7619 37.4891 37.4034 36.9397 39.0532 36.4729C40.4891 36.0684 41.9772 35.8426 43.4485 35.5696C45.1455 35.2544 46.8612 35.0842 48.5903 35.1011C49.2441 35.1078 49.2846 35.1432 49.2863 35.792C49.2896 36.8588 49.2913 37.9256 49.2846 38.9924C49.2812 39.5367 49.2374 39.5839 48.7116 39.5755C46.7381 39.5435 44.7899 39.7979 42.8637 40.1636C40.9003 40.5361 38.9757 41.0821 37.0983 41.7899C35.1923 42.5096 33.3654 43.3842 31.6178 44.4207C28.1259 46.4885 25.0721 49.0771 22.465 52.1915C20.6854 54.3183 19.177 56.6238 17.9417 59.1029C17.0603 60.8707 16.3491 62.7077 15.7728 64.6002C15.2318 66.3732 14.8509 68.1815 14.6065 70.01C14.3049 72.2649 14.1667 74.5367 14.3537 76.8101C14.465 78.1499 14.5644 79.5032 14.8458 80.811C15.2351 82.626 15.739 84.4208 16.2885 86.1938C16.9609 88.3678 17.9636 90.407 19.118 92.3636C21.3426 96.1319 24.1756 99.376 27.5916 102.11C29.4033 103.557 31.3397 104.818 33.4059 105.866C35.3776 106.867 37.4152 107.71 39.5538 108.303C41.0924 108.731 42.6412 109.075 44.2203 109.324C47.3903 109.828 50.5637 109.864 53.7354 109.459C55.269 109.264 56.7976 108.933 58.2907 108.524C59.9288 108.074 61.5568 107.543 63.1292 106.901C65.2577 106.033 67.2598 104.9 69.1574 103.591C72.8078 101.071 75.8783 97.9806 78.3861 94.3202C79.8961 92.1142 81.1364 89.7632 82.0852 87.2757C82.6515 85.791 83.0644 84.2422 83.4773 82.7052C84.1295 80.2717 84.352 77.7741 84.448 75.2647C84.4615 74.9108 84.5845 74.7558 84.9452 74.7574C86.0962 74.7659 87.2456 74.7642 88.3966 74.7524C88.7927 74.749 88.9494 74.9091 88.9241 75.3102C88.7876 77.4505 88.7067 79.5976 88.25 81.7008C87.9096 83.2715 87.5692 84.8455 87.1226 86.3876C86.5479 88.3644 85.7575 90.2671 84.8424 92.1142C83.4604 94.8983 81.7836 97.4902 79.8 99.885C77.5417 102.61 74.9616 104.99 72.0747 107.027C69.9327 108.539 67.6609 109.847 65.2442 110.866C63.7645 111.49 62.2461 112.043 60.7058 112.493C59.0323 112.983 57.3318 113.431 55.6111 113.694C52.5304 114.164 49.4245 114.422 46.305 114.041C44.7899 113.856 43.2631 113.735 41.7666 113.452C39.7476 113.069 37.7741 112.494 35.836 111.79C33.63 110.989 31.515 110.003 29.496 108.824C27.1332 107.445 24.9356 105.829 22.8981 103.995C20.2253 101.589 17.9367 98.8553 15.9952 95.8369C14.5459 93.5837 13.3611 91.1873 12.4022 88.6846C11.6303 86.6673 11.027 84.5978 10.6057 82.4811C10.1035 79.9616 9.86415 77.4067 9.77652 73.9451L9.77483 73.9536Z"
              fill="#FF9900"/>
        <path id="Vector_3"
              d="M90.1544 91.9911C91.0408 92.3636 91.902 92.7242 92.7632 93.0849C93.0598 93.2096 93.3564 93.3343 93.653 93.459C94.1401 93.6629 94.2125 93.7877 93.9918 94.2528C93.4103 95.4797 92.8441 96.7167 92.2003 97.9115C91.5818 99.0558 90.8942 100.163 90.1982 101.262C88.914 103.289 87.4445 105.18 85.8569 106.978C82.9262 110.297 79.5995 113.153 75.8851 115.56C73.6032 117.038 71.2371 118.368 68.7075 119.362C66.6531 120.171 64.5769 120.949 62.4601 121.568C60.7074 122.08 58.8857 122.362 57.0875 122.704C54.4348 123.209 51.7468 123.381 49.0537 123.346C46.6016 123.312 44.1479 123.182 41.7278 122.719C40.2717 122.441 38.7954 122.227 37.3663 121.843C35.6001 121.367 33.8491 120.811 32.1352 120.169C30.5409 119.572 28.9803 118.87 27.4484 118.125C24.7856 116.831 22.3015 115.24 19.9438 113.445C16.8867 111.117 14.1296 108.48 11.7028 105.502C9.69731 103.042 7.88227 100.448 6.44809 97.6099C5.58523 95.9027 4.7291 94.1837 4.02297 92.4091C3.36739 90.7626 2.87361 89.0486 2.37982 87.3431C2.00231 86.0421 1.6484 84.7225 1.43606 83.3861C0.802393 79.4173 0.384443 75.4299 0.795652 71.4021C0.915307 70.2308 0.955754 69.0477 1.13945 67.8882C1.39224 66.2855 1.72087 64.6929 2.06804 63.1071C2.28544 62.1094 2.55509 61.1185 2.87698 60.1494C3.3438 58.7439 3.81568 57.3333 4.40047 55.9733C5.12346 54.2914 5.89195 52.6229 6.76829 51.0169C8.43167 47.9716 10.3782 45.1015 12.7426 42.5568C14.3807 40.794 16.1621 39.166 17.8777 37.4756C18.122 37.2346 18.3057 37.2565 18.5265 37.5296C19.2697 38.443 20.0298 39.3429 20.7932 40.2378C21.0275 40.5125 20.987 40.6945 20.7275 40.9423C19.3742 42.2231 17.9822 43.4702 16.7115 44.8319C14.342 47.3699 12.3432 50.1894 10.6579 53.2313C9.50014 55.3194 8.50413 57.4782 7.71037 59.7264C7.0312 61.6544 6.47674 63.6177 6.06385 65.6232C5.32906 69.1842 4.96673 72.7772 5.1639 76.4057C5.26839 78.3471 5.52961 80.2835 5.81442 82.2098C6.01834 83.5917 6.32169 84.9652 6.68571 86.3134C7.04636 87.6482 7.50813 88.9593 7.97833 90.2621C8.76872 92.4529 9.79338 94.5393 10.9495 96.5583C13.0864 100.289 15.7104 103.65 18.8197 106.616C21.3527 109.029 24.1233 111.133 27.1619 112.889C29.0932 114.004 31.0734 115.024 33.1564 115.808C34.84 116.441 36.5708 116.965 38.3067 117.446C39.692 117.83 41.1026 118.16 42.5232 118.364C45.6916 118.819 48.8768 119.107 52.0839 118.802C53.3259 118.684 54.573 118.603 55.8066 118.426C56.9526 118.261 58.0868 118 59.221 117.757C59.9592 117.599 60.6956 117.427 61.4186 117.211C62.6101 116.856 63.8134 116.52 64.9678 116.067C66.4374 115.489 67.8783 114.83 69.3041 114.151C71.5741 113.071 73.6875 111.722 75.7065 110.229C78.5259 108.145 81.0623 105.76 83.3105 103.069C85.2114 100.792 86.8849 98.3581 88.2803 95.7426C88.8466 94.6825 89.337 93.5821 89.8662 92.5001C89.9454 92.3383 90.0432 92.1866 90.151 91.9962L90.1544 91.9911Z"
              fill="#FF9900"/>
        <path id="Vector_4"
              d="M18.9613 74.6243C19.0355 72.516 19.2529 70.4313 19.6742 68.3635C20.35 65.0502 21.5802 61.9611 23.2959 59.059C25.4143 55.4761 28.1899 52.4814 31.547 50.0344C33.4986 48.612 35.5967 47.4373 37.85 46.5509C38.3303 46.3621 38.8207 46.1953 39.301 46.0082C39.5639 45.9054 39.7038 45.9543 39.7981 46.2458C40.1773 47.4003 40.5835 48.5479 40.9728 49.699C41.0756 49.999 40.9357 50.1742 40.6509 50.2737C37.5618 51.3539 34.7912 52.987 32.3307 55.1408C29.6275 57.5052 27.5074 60.3112 25.9653 63.5621C25.2676 65.0351 24.6963 66.5535 24.302 68.1275C24.0222 69.2365 23.8149 70.374 23.702 71.5116C23.5604 72.9306 23.461 74.3665 23.5031 75.7888C23.5621 77.705 23.8924 79.5925 24.3947 81.4564C25.1665 84.3147 26.4018 86.9454 28.077 89.3722C29.887 91.9945 32.1149 94.2022 34.744 96.0089C36.3669 97.1228 38.0842 98.0649 39.9178 98.7609C41.1396 99.2261 42.4171 99.5598 43.6861 99.8884C45.9545 100.478 48.2717 100.679 50.6059 100.537C52.0839 100.448 53.5669 100.328 55.0028 99.9035C56.2617 99.5311 57.5509 99.248 58.7761 98.7879C60.544 98.1239 62.2259 97.256 63.7831 96.174C64.5078 95.6718 65.2071 95.1325 65.8964 94.5814C66.1947 94.3438 66.3767 94.3573 66.6245 94.6505C67.3727 95.5404 68.1395 96.415 68.9131 97.2829C69.144 97.5408 69.1339 97.7262 68.871 97.9486C67.0846 99.4553 65.1684 100.775 63.0517 101.757C61.4591 102.497 59.8227 103.17 58.1559 103.717C56.8616 104.142 55.4999 104.407 54.1466 104.602C52.5557 104.831 50.9446 105.013 49.3385 105.028C47.3246 105.047 45.3208 104.806 43.3322 104.41C41.025 103.952 38.8156 103.218 36.6854 102.253C34.7187 101.361 32.8801 100.239 31.1493 98.9362C28.4933 96.9374 26.1979 94.5915 24.3626 91.826C23.4357 90.4306 22.5729 88.9779 21.8465 87.4729C21.0089 85.7371 20.3837 83.9102 19.9185 82.0261C19.3169 79.5891 19.0489 77.1202 18.9613 74.6243Z"
              fill="#FF9900"/>
    </g>
    <defs>
        <clipPath id="clip0_1001_599">
            <rect width="96.3695" height="123.349" fill="white" transform="translate(0.630493)"/>
        </clipPath>
    </defs>
</svg>
