<svg width="45" height="45" viewBox="0 0 45 45" fill="none" xmlns="http://www.w3.org/2000/svg">
    <g id="Vector">
        <path fill-rule="evenodd" clip-rule="evenodd"
              d="M26.8565 0.545848C27.2062 0.196339 27.6803 0 28.1747 0C28.6691 0 29.1433 0.196339 29.4929 0.545848L33.6257 4.68332C33.6269 4.68454 33.6282 4.68577 33.6294 4.68699C33.9609 5.01745 34.156 5.46068 34.1755 5.92849C34.1952 6.39804 34.0366 6.85766 33.7316 7.21522L33.7303 7.21679L33.7289 7.21835C33.2568 7.76881 33.0099 8.47721 33.0375 9.20188C33.0652 9.92614 33.365 10.6133 33.8772 11.1261C34.3907 11.6372 35.0782 11.9358 35.8023 11.9623C36.5269 11.9888 37.2349 11.7408 37.7846 11.2679L37.787 11.2658L37.7895 11.2637C38.147 10.9587 38.6066 10.8001 39.0762 10.8198C39.5443 10.8394 39.9877 11.0346 40.3183 11.3665C40.3193 11.3675 40.3203 11.3686 40.3214 11.3696L44.4541 15.5024C44.8036 15.852 45 16.3262 45 16.8206C45 17.315 44.8036 17.7892 44.4541 18.1388L37.8596 24.7333C37.4521 25.141 36.9551 25.4483 36.4082 25.6307C36.3026 25.6662 36.2067 25.7257 36.1281 25.8046C36.0493 25.8836 35.9901 25.9799 35.955 26.0858L35.9545 26.0872L35.9541 26.0886C35.7718 26.6357 35.4648 27.133 35.0574 27.5412L18.1435 44.4541C17.7939 44.8036 17.3197 45 16.8253 45C16.3309 45 15.8567 44.8036 15.5071 44.4541L11.3743 40.3214C11.3732 40.3203 11.3722 40.3193 11.3712 40.3183C11.0393 39.9877 10.8441 39.5443 10.8245 39.0762C10.8048 38.6066 10.9634 38.147 11.2684 37.7895L11.27 37.7875L11.2717 37.7856C11.7443 37.2353 11.9916 36.5269 11.9641 35.802C11.9366 35.0772 11.6364 34.3895 11.1234 33.8766C10.6105 33.3636 9.92283 33.0634 9.19799 33.0359C8.47315 33.0084 7.76467 33.2557 7.21439 33.7283L7.21247 33.73L7.21054 33.7316C6.85297 34.0366 6.39335 34.1952 5.9238 34.1755C5.45615 34.156 5.01307 33.9611 4.68265 33.6297C4.68131 33.6284 4.67997 33.6271 4.67864 33.6257L0.545848 29.4929C0.196339 29.1433 0 28.6691 0 28.1747C0 27.6803 0.196339 27.2062 0.545848 26.8565L17.4588 9.94731C17.8665 9.54039 18.3631 9.23367 18.9094 9.05127M28.1743 3.47073L22.383 9.26198C22.3046 9.34037 22.2455 9.43594 22.2104 9.54111C22.0288 10.0886 21.7222 10.5864 21.315 10.995C20.9071 11.4042 20.4096 11.7127 19.8618 11.8961L19.8598 11.8968C19.7538 11.9321 19.6574 11.9916 19.5783 12.0704L3.47037 28.1748L6.12909 30.8335C7.08668 30.2753 8.18958 29.9955 9.31167 30.038C10.7923 30.0942 12.1971 30.7075 13.2448 31.7552C14.2925 32.8029 14.9058 34.2077 14.962 35.6883C15.0045 36.8104 14.7247 37.9133 14.1665 38.8709L16.8253 41.5297L32.934 25.4219C33.0126 25.3431 33.072 25.2472 33.1074 25.1417C33.289 24.5938 33.5957 24.0957 34.0032 23.6868C34.411 23.2776 34.9086 22.9691 35.4564 22.7857L35.4586 22.785C35.5639 22.7499 35.6595 22.6908 35.738 22.6123L41.5297 16.8206L38.8714 14.1623C37.9152 14.7206 36.8137 15.0013 35.6926 14.9603C34.2126 14.9062 32.8076 14.2954 31.7585 13.25L31.7574 13.249L31.7564 13.2479C30.7093 12.2005 30.0962 10.7963 30.0397 9.31627C29.9969 8.19428 30.2764 7.09139 30.8342 6.13366L28.1743 3.47073ZM20.2618 7.14051C19.8538 7.54849 19.5464 8.04594 19.364 8.59341L19.3636 8.5947L19.3632 8.59599C19.3281 8.70191 19.2688 8.79821 19.1901 8.87723C19.1113 8.95624 19.0152 9.01584 18.9094 9.05127"
              fill="#A0A0A0"/>
        <path fill-rule="evenodd" clip-rule="evenodd"
              d="M19.3759 9.0577C19.9617 8.47191 20.9114 8.47192 21.4972 9.0577L23.045 10.6055C23.6308 11.1913 23.6308 12.1411 23.045 12.7269C22.4592 13.3126 21.5095 13.3126 20.9237 12.7269L19.3759 11.179C18.7901 10.5932 18.7901 9.64349 19.3759 9.0577Z"
              fill="#A0A0A0"/>
        <path fill-rule="evenodd" clip-rule="evenodd"
              d="M24.0179 13.7016C24.6035 13.1156 25.5532 13.1152 26.1393 13.7007L27.1715 14.7319C27.7575 15.3175 27.7579 16.2672 27.1724 16.8533C26.5869 17.4393 25.6371 17.4398 25.0511 16.8542L24.0189 15.823C23.4328 15.2375 23.4324 14.2877 24.0179 13.7016Z"
              fill="#A0A0A0"/>
        <path fill-rule="evenodd" clip-rule="evenodd"
              d="M28.1467 17.8276C28.7328 17.2421 29.6825 17.2425 30.2681 17.8285L31.2993 18.8607C31.8848 19.4468 31.8844 20.3965 31.2984 20.9821C30.7123 21.5676 29.7625 21.5672 29.177 20.9811L28.1458 19.9489C27.5602 19.3629 27.5607 18.4131 28.1467 17.8276Z"
              fill="#A0A0A0"/>
        <path fill-rule="evenodd" clip-rule="evenodd"
              d="M32.2731 21.955C32.8589 21.3692 33.8087 21.3692 34.3945 21.955L35.9423 23.5028C36.5281 24.0886 36.5281 25.0383 35.9423 25.6241C35.3565 26.2099 34.4067 26.2099 33.821 25.6241L32.2731 24.0763C31.6874 23.4905 31.6874 22.5408 32.2731 21.955Z"
              fill="#A0A0A0"/>
    </g>
</svg>
