<svg width="27" height="27" viewBox="0 0 27 27" fill="none" xmlns="http://www.w3.org/2000/svg">
    <g id="Group 19">
        <path id="Vector (Stroke)" fill-rule="evenodd" clip-rule="evenodd"
              d="M0 13.5C0 6.04667 6.04667 0 13.5 0C20.9533 0 27 6.04667 27 13.5C27 20.9533 20.9533 27 13.5 27C6.04667 27 0 20.9533 0 13.5ZM13.5 2.07692C7.19372 2.07692 2.07692 7.19372 2.07692 13.5C2.07692 19.8063 7.19372 24.9231 13.5 24.9231C19.8063 24.9231 24.9231 19.8063 24.9231 13.5C24.9231 7.19372 19.8063 2.07692 13.5 2.07692Z"
              fill="#E6E6E6"/>
        <path id="Vector (Stroke)_2" fill-rule="evenodd" clip-rule="evenodd"
              d="M13.4884 6.3819C13.6551 6.38009 13.8204 6.41709 13.9742 6.49067C14.1281 6.56428 14.2673 6.67296 14.3831 6.81003C14.499 6.94712 14.5891 7.10975 14.6481 7.28796C14.707 7.46616 14.7336 7.65623 14.726 7.84655L14.4025 15.7081C14.3798 16.2582 13.9826 16.6909 13.5003 16.6909C13.018 16.6909 12.6207 16.2583 12.5981 15.7082L12.274 7.84655C12.2665 7.6585 12.2923 7.47066 12.3498 7.29424C12.4073 7.11782 12.4954 6.95645 12.6087 6.81974C12.7221 6.68304 12.8584 6.57381 13.0095 6.49858C13.1606 6.4234 13.3233 6.38372 13.4881 6.3819"
              fill="#E6E6E6"/>
        <path id="Vector"
              d="M13.5 20.6182C13.2572 20.6182 13.02 20.5463 12.8181 20.4114C12.6163 20.2766 12.459 20.0849 12.3661 19.8606C12.2732 19.6364 12.2489 19.3896 12.2963 19.1515C12.3436 18.9135 12.4605 18.6948 12.6322 18.5232C12.8038 18.3515 13.0225 18.2346 13.2605 18.1873C13.4986 18.1399 13.7454 18.1642 13.9696 18.2571C14.1939 18.35 14.3856 18.5073 14.5204 18.7091C14.6553 18.911 14.7273 19.1482 14.7273 19.391C14.7273 19.7165 14.5979 20.0286 14.3678 20.2588C14.1376 20.4889 13.8255 20.6182 13.5 20.6182Z"
              fill="#E6E6E6"/>
    </g>
</svg>
